# xmcd
#
# Track frame offsets:
#	150
#	21867
#	35410
#	50200
#	62005
#	78467
#	91967
#	109175
#	131435
#	142777
#	159760
#	181567
#
# Disc length: 2894 seconds
# Revision: 1
# Processed by: cddbd v1.5.2PL0 Copyright (c) Steve Scherf et al.
# Submitted via: dBpowerAMP V12.0
#
DISCID=8f0b4c0c
DTITLE=Dave Stamey - Wheels
DYEAR=2007
DGENRE=Country
TTITLE0=Wheels
TTITLE1=Pretty Pauline
TTITLE2=Jingle in My Jeans
TTITLE3=Crossing the Plains
TTITLE4=Child of the Desert
TTITLE5=The Dude String Trail
TTITLE6=It's the West
TTITLE7=Streets of Laredo
TTITLE8=Saddle Tramp
TTITLE9=Three Quarter Time
TTITLE10=Riding Another Circle
TTITLE11=South Coast
EXTD=
EXTT0=
EXTT1=
EXTT2=
EXTT3=
EXTT4=
EXTT5=
EXTT6=
EXTT7=
EXTT8=
EXTT9=
EXTT10=
EXTT11=
PLAYORDER=
